<?xml version="1.0" standalone="no"?>
<!DOCTYPE svg PUBLIC "-//W3C//DTD SVG 20010904//EN"
 "http://www.w3.org/TR/2001/REC-SVG-20010904/DTD/svg10.dtd">
<svg version="1.0" xmlns="http://www.w3.org/2000/svg"
 width="300.000000pt" height="300.000000pt" viewBox="0 0 300.000000 300.000000"
 preserveAspectRatio="xMidYMid meet">

<g transform="translate(0.000000,300.000000) scale(0.100000,-0.100000)"
fill="#000000" stroke="none">
<path d="M1365 2994 c-99 -11 -263 -48 -356 -80 -223 -77 -390 -183 -565 -358
-224 -225 -354 -468 -416 -779 -31 -158 -31 -396 0 -554 62 -311 192 -554 416
-779 293 -292 643 -438 1056 -438 413 0 763 145 1056 438 293 293 438 643 438
1056 0 413 -146 763 -438 1056 -224 223 -471 355 -773 414 -105 20 -330 33
-418 24z m446 -42 c297 -70 522 -194 734 -407 289 -289 435 -639 435 -1043 0
-468 -204 -885 -573 -1172 -265 -207 -567 -310 -909 -310 -404 0 -754 146
-1043 435 -217 216 -345 451 -411 755 -27 122 -27 458 0 580 63 288 189 528
385 732 235 245 522 395 858 448 101 16 426 4 524 -18z"/>
<path d="M1220 2896 c0 -8 4 -17 8 -20 13 -8 35 11 28 23 -10 16 -36 14 -36
-3z"/>
<path d="M1850 2870 c0 -15 5 -20 18 -18 9 2 17 10 17 18 0 8 -8 16 -17 18
-13 2 -18 -3 -18 -18z"/>
<path d="M1470 2850 c-43 -43 -11 -120 49 -120 17 0 33 5 36 10 4 6 -6 10 -23
10 -27 0 -42 14 -42 41 0 5 18 9 40 9 32 0 40 4 40 18 0 25 -31 52 -58 52 -12
0 -31 -9 -42 -20z m60 -21 c0 -12 -7 -19 -20 -19 -22 0 -26 20 -8 38 15 15 28
6 28 -19z"/>
<path d="M1319 2853 c-15 -4 -14 -11 9 -64 34 -75 54 -77 72 -6 7 28 15 58 17
65 3 6 1 12 -5 12 -5 0 -13 -17 -17 -37 -11 -58 -17 -60 -39 -12 -15 31 -26
44 -37 42z"/>
<path d="M1606 2828 c-13 -87 -13 -98 4 -98 12 0 20 13 26 43 7 33 14 43 32
45 14 2 22 10 22 23 0 17 -3 18 -22 8 -16 -9 -23 -9 -26 0 -8 24 -31 10 -36
-21z"/>
<path d="M1230 2832 c0 -5 5 -34 11 -65 10 -46 16 -57 31 -57 14 0 18 5 14 15
-3 8 -8 37 -12 65 -5 40 -10 50 -25 50 -11 0 -19 -4 -19 -8z"/>
<path d="M1717 2834 c-15 -15 -6 -49 20 -76 24 -25 25 -28 8 -34 -12 -5 -22
-1 -30 10 -9 12 -15 14 -20 5 -10 -15 13 -29 47 -29 17 0 31 7 38 19 14 27 14
29 -22 61 -28 26 -30 30 -13 36 12 5 23 1 32 -12 14 -19 15 -19 11 1 -2 14
-12 21 -33 23 -17 2 -34 0 -38 -4z"/>
<path d="M980 2819 c0 -9 12 -42 26 -73 29 -63 25 -92 -12 -106 -38 -15 -52
-3 -86 70 -27 58 -35 67 -49 59 -17 -8 -16 -13 7 -67 32 -72 50 -92 83 -92 33
0 87 33 95 58 7 21 -24 116 -49 148 -12 16 -14 16 -15 3z"/>
<path d="M1920 2811 c-14 -16 -20 -43 -23 -116 -2 -25 2 -30 23 -33 17 -2 21
0 12 6 -20 13 5 91 32 102 12 5 15 9 7 9 -9 1 -12 9 -9 26 6 30 -18 33 -42 6z"/>
<path d="M1121 2807 c-6 -8 -21 -13 -31 -10 -24 6 -24 2 -4 -68 19 -64 17 -61
36 -54 14 6 14 12 2 52 -10 33 -11 50 -3 59 17 21 36 5 49 -42 9 -32 18 -44
31 -44 22 0 22 0 1 65 -14 41 -22 51 -43 53 -14 2 -31 -4 -38 -11z"/>
<path d="M1821 2765 c-15 -68 -15 -69 3 -73 14 -3 20 10 42 101 5 22 3 27 -13
27 -16 0 -22 -11 -32 -55z"/>
<path d="M2000 2701 c0 -63 -2 -71 -26 -90 -15 -12 -20 -21 -13 -21 20 1 155
128 145 137 -4 4 -21 -7 -37 -25 -16 -17 -31 -32 -35 -32 -3 0 -4 18 -3 41 3
30 -1 43 -14 50 -15 9 -17 3 -17 -60z"/>
<path d="M1296 2654 c-560 -101 -966 -587 -966 -1154 0 -587 435 -1083 1017
-1161 127 -17 315 -6 436 25 210 54 377 148 532 301 235 230 355 513 355 835
0 315 -119 601 -344 826 -178 178 -385 286 -630 329 -108 18 -293 18 -400 -1z
m394 -10 c684 -118 1114 -798 924 -1462 -147 -517 -637 -867 -1174 -839 -827
44 -1343 913 -985 1660 141 296 423 532 735 616 157 42 345 52 500 25z"/>
<path d="M1408 2623 c12 -2 32 -2 45 0 12 2 2 4 -23 4 -25 0 -35 -2 -22 -4z"/>
<path d="M1548 2623 c12 -2 32 -2 45 0 12 2 2 4 -23 4 -25 0 -35 -2 -22 -4z"/>
<path d="M1318 2613 c6 -2 18 -2 25 0 6 3 1 5 -13 5 -14 0 -19 -2 -12 -5z"/>
<path d="M1658 2613 c6 -2 18 -2 25 0 6 3 1 5 -13 5 -14 0 -19 -2 -12 -5z"/>
<path d="M1268 2603 c7 -3 16 -2 19 1 4 3 -2 6 -13 5 -11 0 -14 -3 -6 -6z"/>
<path d="M1718 2603 c7 -3 16 -2 19 1 4 3 -2 6 -13 5 -11 0 -14 -3 -6 -6z"/>
<path d="M1030 2530 c-8 -5 -10 -10 -5 -10 6 0 17 5 25 10 8 5 11 10 5 10 -5
0 -17 -5 -25 -10z"/>
<path d="M1950 2530 c8 -5 20 -10 25 -10 6 0 3 5 -5 10 -8 5 -19 10 -25 10 -5
0 -3 -5 5 -10z"/>
<path d="M1990 2515 c0 -2 18 -14 40 -25 22 -11 40 -18 40 -15 0 2 -18 14 -40
25 -22 11 -40 18 -40 15z"/>
<path d="M958 2494 c-38 -20 -36 -28 2 -9 17 9 30 18 30 20 0 7 -1 6 -32 -11z"/>
<path d="M894 2454 c-18 -14 -18 -15 4 -4 12 6 22 13 22 15 0 8 -5 6 -26 -11z"/>
<path d="M2085 2463 c6 -5 35 -26 65 -47 40 -27 46 -29 23 -9 -29 26 -110 77
-88 56z"/>
<path d="M808 2395 c-102 -80 -231 -223 -270 -300 -16 -30 3 -8 54 65 53 76
150 176 225 233 46 34 60 47 51 47 -2 0 -29 -20 -60 -45z"/>
<path d="M2290 2295 c47 -47 87 -85 90 -85 2 0 -33 38 -80 85 -47 47 -87 85
-90 85 -2 0 33 -38 80 -85z"/>
<path d="M1491 2324 c0 -11 3 -14 6 -6 3 7 2 16 -1 19 -3 4 -6 -2 -5 -13z"/>
<path d="M1467 2271 c-43 -28 -45 -34 -5 -15 31 14 42 15 65 5 l28 -12 -25 21
c-30 23 -28 23 -63 1z"/>
<path d="M1600 2226 c0 -3 9 -10 20 -16 11 -6 20 -8 20 -6 0 3 -9 10 -20 16
-11 6 -20 8 -20 6z"/>
<path d="M2416 2150 c46 -67 64 -87 38 -42 -10 19 -32 48 -47 65 -20 23 -18
17 9 -23z"/>
<path d="M489 2009 c-16 -34 -29 -63 -27 -65 2 -2 18 26 36 61 17 36 30 65 27
65 -3 0 -19 -27 -36 -61z"/>
<path d="M2502 2005 c18 -35 34 -63 36 -61 4 5 -56 126 -63 126 -3 0 10 -29
27 -65z"/>
<path d="M1222 1940 c0 -14 2 -19 5 -12 2 6 2 18 0 25 -3 6 -5 1 -5 -13z"/>
<path d="M1762 1940 c0 -14 2 -19 5 -12 2 6 2 18 0 25 -3 6 -5 1 -5 -13z"/>
<path d="M2540 1925 c0 -5 5 -17 10 -25 5 -8 10 -10 10 -5 0 6 -5 17 -10 25
-5 8 -10 11 -10 5z"/>
<path d="M570 1754 c0 -3 5 -14 10 -25 15 -28 23 -92 10 -84 -5 3 -10 12 -10
19 0 14 -67 82 -75 75 -3 -3 6 -16 20 -29 14 -13 25 -29 25 -37 0 -7 5 -13 12
-13 6 0 9 -2 6 -5 -2 -3 -24 4 -47 16 -24 11 -45 18 -49 15 -6 -7 -8 -6 48
-33 l45 -22 -52 0 c-29 -1 -53 -5 -53 -10 0 -4 24 -6 53 -4 l52 4 -25 -18
c-46 -33 -95 -81 -89 -88 4 -3 13 0 20 7 39 38 109 89 109 80 0 -5 -6 -12 -13
-15 -14 -5 -44 -113 -35 -123 3 -3 14 20 23 50 10 31 22 53 26 50 5 -3 9 0 9
5 0 6 5 11 10 11 6 0 10 -9 10 -20 0 -11 5 -20 10 -20 6 0 10 -11 10 -24 0
-14 5 -28 10 -31 14 -9 12 12 -5 70 l-15 49 40 -39 c53 -52 52 -33 -2 22 -35
35 -39 43 -25 49 10 3 29 4 42 2 14 -3 25 -1 25 3 0 5 -14 9 -32 9 l-32 0 29
30 c35 37 22 40 -16 4 l-27 -26 -7 24 c-13 47 -28 78 -36 78 -5 0 -9 -3 -9 -6z"/>
<path d="M2410 1736 c-5 -15 -13 -38 -16 -52 -6 -25 -7 -25 -28 -6 -36 33 -50
38 -37 13 7 -11 16 -21 21 -21 6 0 10 -4 10 -10 0 -5 -13 -10 -30 -10 -16 0
-30 -4 -30 -10 0 -5 13 -7 30 -4 61 13 65 -3 15 -52 -26 -25 -45 -48 -42 -50
3 -3 22 12 42 33 l37 38 -6 -30 c-4 -16 -8 -46 -11 -65 l-5 -35 10 33 c6 18
15 30 20 27 6 -4 11 9 11 27 1 18 3 25 6 16 2 -10 10 -18 17 -18 7 0 19 -19
26 -42 7 -24 17 -47 22 -53 13 -15 9 22 -6 60 -8 18 -12 35 -10 38 3 2 -2 10
-11 17 -8 7 -15 16 -15 21 0 5 8 2 18 -6 101 -87 104 -89 101 -70 -2 11 -25
34 -51 50 -26 17 -47 34 -47 39 -1 5 22 6 49 4 28 -3 50 -1 50 3 0 5 -26 9
-57 9 l-57 0 39 20 c22 11 45 20 52 20 7 0 13 5 13 11 0 11 -28 5 -72 -16 -16
-8 -28 -12 -28 -9 0 2 16 22 36 44 24 27 31 40 21 40 -14 0 -86 -80 -79 -88 2
-2 1 -6 -2 -9 -9 -10 -7 29 5 70 12 45 4 62 -11 23z"/>
<path d="M391 1724 c0 -11 3 -14 6 -6 3 7 2 16 -1 19 -3 4 -6 -2 -5 -13z"/>
<path d="M2601 1724 c0 -11 3 -14 6 -6 3 7 2 16 -1 19 -3 4 -6 -2 -5 -13z"/>
<path d="M771 1694 c0 -11 3 -14 6 -6 3 7 2 16 -1 19 -3 4 -6 -2 -5 -13z"/>
<path d="M2221 1694 c0 -11 3 -14 6 -6 3 7 2 16 -1 19 -3 4 -6 -2 -5 -13z"/>
<path d="M382 1670 c0 -14 2 -19 5 -12 2 6 2 18 0 25 -3 6 -5 1 -5 -13z"/>
<path d="M2612 1670 c0 -14 2 -19 5 -12 2 6 2 18 0 25 -3 6 -5 1 -5 -13z"/>
<path d="M373 1570 c0 -25 2 -35 4 -22 2 12 2 32 0 45 -2 12 -4 2 -4 -23z"/>
<path d="M2624 1500 c0 -63 1 -89 3 -57 2 31 2 83 0 115 -2 31 -3 5 -3 -58z"/>
<path d="M373 1430 c0 -25 2 -35 4 -22 2 12 2 32 0 45 -2 12 -4 2 -4 -23z"/>
<path d="M382 1330 c0 -14 2 -19 5 -12 2 6 2 18 0 25 -3 6 -5 1 -5 -13z"/>
<path d="M2612 1330 c0 -14 2 -19 5 -12 2 6 2 18 0 25 -3 6 -5 1 -5 -13z"/>
<path d="M391 1274 c0 -11 3 -14 6 -6 3 7 2 16 -1 19 -3 4 -6 -2 -5 -13z"/>
<path d="M2601 1274 c0 -11 3 -14 6 -6 3 7 2 16 -1 19 -3 4 -6 -2 -5 -13z"/>
<path d="M2546 1095 c-9 -26 -7 -32 5 -12 6 10 9 21 6 23 -2 3 -7 -2 -11 -11z"/>
<path d="M820 1060 c0 -16 5 -30 10 -30 6 0 10 14 10 30 0 17 -4 30 -10 30 -5
0 -10 -13 -10 -30z"/>
<path d="M990 1060 c0 -16 5 -30 10 -30 6 0 10 14 10 30 0 17 -4 30 -10 30 -5
0 -10 -13 -10 -30z"/>
<path d="M1020 1060 c0 -16 5 -30 10 -30 6 0 10 14 10 30 0 17 -4 30 -10 30
-5 0 -10 -13 -10 -30z"/>
<path d="M1183 1060 c-1 -17 2 -30 7 -30 6 0 10 14 10 30 0 39 -14 39 -17 0z"/>
<path d="M1210 1060 c0 -16 5 -30 10 -30 6 0 10 14 10 30 0 17 -4 30 -10 30
-5 0 -10 -13 -10 -30z"/>
<path d="M1380 1062 c0 -18 5 -32 10 -32 6 0 8 11 4 28 -10 39 -14 40 -14 4z"/>
<path d="M1410 1060 c0 -16 4 -30 8 -30 5 0 7 14 4 30 -2 17 -6 30 -8 30 -2 0
-4 -13 -4 -30z"/>
<path d="M1570 1060 c0 -16 5 -30 10 -30 6 0 10 14 10 30 0 17 -4 30 -10 30
-5 0 -10 -13 -10 -30z"/>
<path d="M1600 1060 c0 -16 5 -30 10 -30 6 0 10 14 10 30 0 17 -4 30 -10 30
-5 0 -10 -13 -10 -30z"/>
<path d="M1772 1060 c0 -19 2 -27 5 -17 2 9 2 25 0 35 -3 9 -5 1 -5 -18z"/>
<path d="M1802 1060 c0 -19 2 -27 5 -17 2 9 2 25 0 35 -3 9 -5 1 -5 -18z"/>
<path d="M1960 1060 c0 -16 5 -30 10 -30 6 0 10 14 10 30 0 17 -4 30 -10 30
-5 0 -10 -13 -10 -30z"/>
<path d="M1990 1062 c0 -18 5 -32 10 -32 6 0 9 11 7 25 -5 37 -17 42 -17 7z"/>
<path d="M2160 1060 c0 -16 5 -30 10 -30 6 0 10 14 10 30 0 17 -4 30 -10 30
-5 0 -10 -13 -10 -30z"/>
<path d="M460 1056 c0 -10 60 -126 65 -126 3 0 -9 28 -26 63 -33 65 -39 75
-39 63z"/>
<path d="M2502 995 c-17 -36 -30 -65 -27 -65 7 0 67 121 63 126 -2 2 -18 -26
-36 -61z"/>
<path d="M608 1033 c7 -3 16 -2 19 1 4 3 -2 6 -13 5 -11 0 -14 -3 -6 -6z"/>
<path d="M2388 1033 c7 -3 16 -2 19 1 4 3 -2 6 -13 5 -11 0 -14 -3 -6 -6z"/>
<path d="M546 892 c10 -19 32 -48 47 -65 20 -23 18 -17 -9 23 -46 67 -64 87
-38 42z"/>
<path d="M2435 878 c-16 -24 -22 -38 -14 -31 15 12 53 73 46 73 -2 0 -17 -19
-32 -42z"/>
<path d="M2389 813 c-13 -16 -12 -17 4 -4 9 7 17 15 17 17 0 8 -8 3 -21 -13z"/>
<path d="M700 705 c47 -47 87 -85 90 -85 2 0 -33 38 -80 85 -47 47 -87 85 -90
85 -2 0 33 -38 80 -85z"/>
<path d="M2270 687 c-58 -56 -87 -87 -65 -70 40 32 184 173 175 173 -3 -1 -52
-47 -110 -103z"/>
<path d="M1263 768 c-28 -14 -30 -28 -3 -21 19 5 20 0 20 -81 0 -72 2 -84 15
-80 12 5 15 26 15 100 0 99 -2 104 -47 82z"/>
<path d="M1396 764 c-21 -20 -20 -68 1 -89 12 -12 25 -15 50 -10 l33 6 -13
-33 c-11 -28 -19 -33 -45 -33 -33 0 -39 -17 -8 -23 69 -14 124 129 70 183 -20
20 -68 19 -88 -1z m75 -18 c15 -32 -4 -68 -34 -64 -16 2 -23 11 -25 31 -6 52
39 78 59 33z"/>
<path d="M1547 762 c-40 -44 -4 -110 53 -98 29 5 31 4 24 -17 -10 -34 -24 -47
-50 -47 -13 0 -24 -4 -24 -10 0 -13 21 -13 55 0 48 18 72 121 39 168 -19 28
-74 30 -97 4z m71 -4 c26 -26 7 -78 -29 -78 -28 0 -40 55 -17 78 7 7 17 12 23
12 6 0 16 -5 23 -12z"/>
<path d="M1690 764 c0 -14 8 -16 50 -10 28 4 50 4 50 2 0 -3 -20 -39 -45 -79
-47 -78 -51 -87 -36 -87 8 0 111 172 111 185 0 3 -29 5 -65 5 -53 0 -65 -3
-65 -16z"/>
<path d="M827 593 c17 -15 46 -37 65 -47 45 -26 25 -8 -42 38 -40 27 -46 29
-23 9z"/>
<path d="M2130 569 c-22 -18 -22 -19 -3 -10 12 6 25 16 28 21 9 15 3 12 -25
-11z"/>
<path d="M930 525 c0 -7 121 -67 126 -63 2 2 -26 18 -61 36 -36 17 -65 30 -65
27z"/>
<path d="M2000 495 c-36 -19 -61 -34 -57 -35 10 0 127 59 127 65 0 7 2 8 -70
-30z"/>
<path d="M1900 450 c-8 -5 -10 -10 -5 -10 6 0 17 5 25 10 8 5 11 10 5 10 -5 0
-17 -5 -25 -10z"/>
<path d="M1268 393 c7 -3 16 -2 19 1 4 3 -2 6 -13 5 -11 0 -14 -3 -6 -6z"/>
<path d="M1718 393 c7 -3 16 -2 19 1 4 3 -2 6 -13 5 -11 0 -14 -3 -6 -6z"/>
<path d="M1318 383 c6 -2 18 -2 25 0 6 3 1 5 -13 5 -14 0 -19 -2 -12 -5z"/>
<path d="M1658 383 c6 -2 18 -2 25 0 6 3 1 5 -13 5 -14 0 -19 -2 -12 -5z"/>
<path d="M1443 373 c31 -2 83 -2 115 0 31 2 5 3 -58 3 -63 0 -89 -1 -57 -3z"/>
<path d="M2192 2623 c-35 -30 -38 -68 -8 -97 31 -31 55 -33 90 -5 19 15 26 30
26 54 0 57 -64 85 -108 48z m83 -13 c16 -25 -50 -100 -75 -85 -15 9 -12 24 11
61 20 33 51 45 64 24z"/>
<path d="M698 2601 c-7 -10 -23 -21 -35 -25 -23 -7 -23 -8 15 -61 40 -59 40
-59 60 -46 11 7 8 17 -16 50 -30 42 -33 71 -6 71 11 0 30 -22 71 -79 2 -3 10
2 18 10 12 12 9 20 -21 57 -38 45 -65 53 -86 23z"/>
<path d="M2385 2580 c-3 -5 -15 -10 -27 -10 -13 0 -18 -5 -15 -14 3 -8 -1 -20
-9 -27 -8 -7 -24 -25 -36 -41 -16 -23 -18 -32 -9 -41 9 -9 20 -2 48 31 20 25
41 41 49 38 10 -4 12 2 8 23 -7 34 13 52 31 27 10 -13 14 -14 24 -3 6 8 8 17
4 20 -10 11 -61 8 -68 -3z"/>
<path d="M565 2495 c-26 -25 -32 -45 -15 -45 6 0 10 6 10 14 0 17 30 30 43 17
5 -5 3 -21 -7 -39 -17 -33 -13 -57 10 -66 21 -8 42 3 49 25 4 10 13 19 20 19
30 0 24 21 -17 59 -24 22 -49 41 -56 41 -7 0 -24 -11 -37 -25z m81 -81 c-6
-16 -8 -16 -23 -2 -9 10 -13 23 -9 34 6 16 8 16 23 2 9 -10 13 -23 9 -34z"/>
<path d="M2486 2441 c-13 -15 -16 -29 -10 -68 5 -42 3 -51 -11 -57 -22 -8 -45
10 -45 35 0 20 -15 25 -25 9 -8 -13 49 -70 70 -70 9 0 27 11 40 24 20 20 22
29 15 61 -5 21 -6 44 -3 52 9 22 48 11 51 -14 4 -25 22 -32 22 -8 0 23 -37 55
-63 55 -13 0 -32 -8 -41 -19z"/>
<path d="M480 2410 c-41 -41 -12 -120 45 -120 29 0 80 44 69 61 -4 6 -12 3
-21 -10 -19 -28 -44 -26 -72 3 -27 29 -24 60 7 64 12 2 20 8 17 13 -9 14 -23
11 -45 -11z"/>
<path d="M2564 2314 c-43 -30 -80 -59 -82 -64 -8 -22 28 -19 63 5 41 27 58 28
63 2 2 -10 -13 -26 -37 -43 -44 -28 -50 -41 -26 -50 20 -8 95 53 95 76 0 10
-10 26 -22 34 -22 16 -22 16 -3 30 58 41 58 41 43 54 -12 9 -30 0 -94 -44z"/>
<path d="M334 2339 c-8 -14 11 -33 25 -25 6 4 11 14 11 22 0 16 -26 19 -36 3z"/>
<path d="M397 2303 c-13 -13 -7 -21 43 -57 57 -41 56 -41 64 -21 3 9 -11 27
-41 50 -48 36 -55 40 -66 28z"/>
<path d="M360 2234 c0 -14 -4 -23 -9 -20 -5 3 -14 0 -20 -8 -10 -11 -1 -21 46
-50 51 -32 58 -34 67 -19 6 11 6 18 -2 21 -6 2 -23 13 -37 24 -20 15 -25 27
-21 43 4 15 1 25 -9 29 -11 4 -15 -2 -15 -20z"/>
<path d="M2673 2162 c38 -42 9 -64 -34 -27 -34 28 -47 28 -63 2 -8 -12 -7 -22
2 -34 12 -18 20 -35 28 -62 4 -11 7 -11 22 1 9 9 32 23 50 32 25 13 32 23 32
45 0 15 -8 35 -18 44 -25 23 -39 22 -19 -1z m-26 -56 c-5 -14 -57 -21 -57 -7
0 14 31 30 47 24 8 -3 12 -11 10 -17z"/>
<path d="M286 2124 c-21 -21 -20 -67 2 -87 33 -30 69 -31 96 -3 15 14 26 35
26 48 -1 22 -1 22 -16 -4 -10 -19 -23 -28 -39 -28 -29 0 -31 10 -10 49 8 16
11 31 8 35 -12 12 -52 6 -67 -10z m44 -29 c0 -21 -30 -31 -41 -14 -14 23 -11
29 16 29 16 0 25 -6 25 -15z"/>
<path d="M2680 2029 c-54 -24 -54 -24 -46 -44 5 -14 8 -14 35 0 38 19 67 19
75 0 3 -9 12 -12 22 -8 15 6 15 8 -5 24 -13 11 -17 19 -9 21 14 5 1 28 -15 27
-7 0 -32 -9 -57 -20z"/>
<path d="M229 1989 c-13 -13 -18 -27 -14 -40 4 -13 1 -25 -8 -32 -8 -7 -17
-23 -20 -37 -2 -14 -7 -32 -11 -41 -10 -23 111 -60 124 -38 7 11 -1 17 -35 29
-54 18 -67 30 -55 50 8 12 15 12 59 -2 45 -14 50 -14 56 0 6 16 -10 32 -32 32
-23 0 -63 23 -63 37 0 22 23 25 69 8 54 -19 51 -19 51 3 0 13 -14 23 -51 34
-48 16 -51 16 -70 -3z"/>
<path d="M2826 1955 c-6 -17 16 -31 33 -21 13 9 2 36 -14 36 -7 0 -16 -7 -19
-15z"/>
<path d="M2715 1923 c-38 -13 -78 -22 -88 -19 -22 5 -18 -13 5 -28 12 -7 37
-3 92 14 42 13 76 26 76 29 -1 26 -20 27 -85 4z"/>
<path d="M2790 1866 c0 -3 6 -15 12 -26 10 -15 10 -22 0 -32 -11 -11 -18 -7
-41 21 -19 24 -33 32 -45 28 -24 -9 -31 -35 -17 -61 7 -12 11 -26 10 -32 -4
-24 1 -36 14 -26 6 5 28 13 47 17 19 4 41 12 48 17 19 16 14 63 -8 83 -11 10
-20 15 -20 11z m-27 -60 c3 -8 -2 -16 -11 -18 -24 -7 -42 1 -42 18 0 18 46 18
53 0z"/>
<path d="M220 1754 c-30 -9 -72 -20 -92 -25 -21 -5 -38 -14 -38 -19 0 -7 164
-110 176 -110 14 0 0 22 -21 32 -17 8 -25 19 -25 37 0 35 10 48 40 52 17 3 26
11 28 27 4 25 5 25 -68 6z m-10 -62 c0 -27 -9 -32 -36 -20 -39 18 -33 25 29
37 4 0 7 -7 7 -17z"/>
<path d="M2830 1725 c-8 -2 -36 -7 -62 -10 -36 -5 -48 -11 -48 -23 0 -14 8
-16 51 -13 60 4 85 -12 55 -35 -11 -8 -37 -14 -58 -14 -32 0 -38 -3 -38 -21 0
-19 4 -20 53 -14 67 9 85 25 70 64 -10 29 -10 29 34 36 55 8 53 29 -3 32 -21
0 -46 0 -54 -2z"/>
<path d="M141 1391 c-14 -25 -5 -48 20 -56 27 -9 51 13 47 44 -4 34 -51 43
-67 12z"/>
<path d="M2767 1403 c-12 -12 -7 -50 8 -63 17 -14 51 -5 59 16 13 35 -41 73
-67 47z"/>
<path d="M256 1185 c-3 -9 0 -15 8 -15 8 0 16 7 20 15 3 9 0 15 -8 15 -8 0
-16 -7 -20 -15z"/>
<path d="M157 1174 c-39 -21 -32 -47 16 -55 48 -8 54 -15 32 -39 -24 -27 -22
-64 10 -135 40 -91 70 -125 109 -125 34 0 87 42 72 57 -4 4 -12 0 -17 -10 -12
-21 -29 -22 -29 -2 0 8 5 15 12 15 6 0 9 3 6 6 -4 3 -16 1 -27 -6 -17 -9 -19
-15 -11 -30 8 -16 7 -20 -5 -20 -27 0 -115 163 -115 214 0 13 7 29 15 36 32
27 8 49 -52 50 -13 0 -23 6 -23 14 0 7 10 21 23 29 28 20 20 21 -16 1z"/>
<path d="M2704 1181 c3 -5 27 -14 53 -20 27 -7 57 -14 68 -18 14 -4 17 -2 9 6
-5 6 -36 18 -68 26 -67 18 -69 18 -62 6z"/>
<path d="M280 1145 c0 -8 7 -15 15 -15 8 0 15 7 15 15 0 8 -7 15 -15 15 -8 0
-15 -7 -15 -15z"/>
<path d="M2673 1133 c-7 -3 -10 -10 -7 -18 3 -8 11 -12 17 -10 7 3 35 -1 62
-8 38 -10 51 -18 53 -35 4 -26 -16 -65 -29 -57 -5 4 -7 10 -4 15 3 5 1 11 -4
14 -5 4 -28 -15 -50 -41 -39 -46 -52 -85 -31 -98 6 -3 10 4 10 18 0 13 9 32
20 42 18 17 20 17 20 1 0 -46 -72 -159 -110 -171 -12 -4 -34 4 -60 21 -22 15
-43 25 -46 22 -3 -3 21 -20 52 -38 51 -29 59 -30 82 -19 49 27 102 130 102
201 0 25 3 27 29 22 26 -6 30 -3 41 32 12 34 11 39 -9 55 -11 9 -39 20 -61 24
-22 4 -46 12 -53 19 -7 7 -18 11 -24 9z"/>
<path d="M319 1053 c12 -23 29 -38 37 -31 2 3 -8 15 -22 29 -25 23 -26 23 -15
2z"/>
<path d="M2631 1032 c-1 -6 -12 -35 -25 -62 -13 -28 -21 -50 -17 -50 12 0 54
97 48 111 -4 10 -6 10 -6 1z"/>
<path d="M346 975 c-3 -9 0 -15 8 -15 8 0 16 7 20 15 3 9 0 15 -8 15 -8 0 -16
-7 -20 -15z"/>
<path d="M370 935 c0 -8 4 -15 9 -15 5 0 11 7 15 15 3 9 0 15 -9 15 -8 0 -15
-7 -15 -15z"/>
<path d="M2784 937 c-8 -21 -3 -29 13 -19 8 5 9 13 3 22 -7 12 -10 12 -16 -3z"/>
<path d="M251 774 c-2 -51 96 -76 134 -34 10 11 15 23 11 27 -3 4 -13 -3 -22
-15 -26 -37 -96 -24 -114 21 -9 22 -9 22 -9 1z"/>
<path d="M448 735 c-68 -63 -65 -81 23 -166 39 -38 75 -69 80 -69 5 0 9 -7 9
-15 0 -8 5 -15 10 -15 6 0 20 -11 32 -25 30 -34 52 -31 85 11 15 20 35 44 44
54 8 9 13 22 11 28 -5 15 -22 16 -22 1 0 -6 -14 -31 -31 -55 -31 -46 -66 -57
-62 -20 0 11 -4 15 -13 12 -19 -7 -30 14 -13 26 10 7 8 8 -8 3 -16 -4 -26 0
-35 14 -7 12 -18 21 -24 21 -20 0 -114 108 -114 131 0 14 18 39 46 66 26 24
43 43 38 43 -5 0 -30 -20 -56 -45z"/>
<path d="M2550 721 c0 -17 5 -33 10 -36 14 -8 13 -18 -4 -40 -14 -19 -15 -19
-34 -2 -24 22 -52 12 -52 -18 0 -19 4 -22 22 -17 l22 5 -22 -30 c-55 -77 -143
-136 -203 -136 -31 0 -39 -4 -44 -24 -3 -14 -3 -33 0 -43 7 -21 -10 -35 -28
-23 -7 4 -4 0 6 -9 27 -25 37 -14 37 37 0 44 1 44 29 39 58 -12 155 54 218
148 14 21 33 40 43 43 10 3 23 18 29 33 6 15 16 35 23 45 11 16 10 21 -11 38
-32 26 -41 24 -41 -10z m50 -11 c0 -5 -5 -12 -11 -16 -12 -7 -31 15 -23 28 6
9 34 -1 34 -12z m-101 -81 c-16 -10 -23 -4 -14 10 3 6 11 8 17 5 6 -4 5 -9 -3
-15z"/>
<path d="M535 710 c-8 -13 12 -40 29 -40 6 0 3 7 -8 15 -10 7 -15 18 -11 24 3
6 4 11 1 11 -3 0 -8 -5 -11 -10z"/>
<path d="M2385 663 c-58 -72 -63 -81 -26 -48 38 35 75 84 69 91 -3 2 -22 -17
-43 -43z"/>
<path d="M620 615 c0 -8 7 -15 15 -15 8 0 15 7 15 15 0 8 -7 15 -15 15 -8 0
-15 -7 -15 -15z"/>
<path d="M580 595 c0 -8 7 -15 15 -15 8 0 15 7 15 15 0 8 -7 15 -15 15 -8 0
-15 -7 -15 -15z"/>
<path d="M626 573 c-11 -11 -6 -23 9 -23 8 0 15 4 15 9 0 13 -16 22 -24 14z"/>
<path d="M2200 505 c0 -8 9 -15 20 -15 11 0 20 7 20 15 0 8 -9 15 -20 15 -11
0 -20 -7 -20 -15z"/>
<path d="M784 502 c-5 -4 -21 -25 -34 -47 -13 -22 -33 -51 -44 -65 -16 -20
-14 -18 13 5 48 44 103 133 65 107z"/>
<path d="M2163 468 c2 -7 10 -13 17 -13 7 0 15 6 18 13 2 7 -5 12 -18 12 -13
0 -20 -5 -17 -12z"/>
<path d="M2081 432 c-1 -27 50 -152 63 -152 12 0 1 38 -33 111 -20 43 -30 57
-30 41z"/>
<path d="M2022 394 c3 -17 21 -21 26 -6 1 5 -4 12 -13 16 -11 4 -15 1 -13 -10z"/>
<path d="M993 374 c29 -9 19 -23 -20 -26 l-38 -4 29 -8 c32 -10 61 2 61 25 0
8 -11 15 -25 16 -14 1 -18 0 -7 -3z"/>
<path d="M750 347 c0 -21 69 -78 138 -115 118 -63 269 -96 306 -67 15 11 17
17 7 29 -9 11 -9 19 0 34 14 22 5 72 -14 72 -6 0 -20 -7 -31 -15 -25 -19 -14
-45 19 -45 15 0 24 -4 20 -10 -3 -5 -17 -10 -30 -10 -36 0 -39 -17 -5 -25 29
-6 39 -19 23 -28 -5 -3 -47 3 -94 13 -100 21 -224 80 -294 142 -29 26 -45 34
-45 25z m440 -78 c0 -5 -7 -9 -15 -9 -15 0 -20 12 -9 23 8 8 24 -1 24 -14z"/>
<path d="M1866 352 c-2 -4 -1 -14 3 -20 6 -10 11 -9 21 3 11 13 10 14 -5 9
-13 -5 -16 -4 -11 4 4 7 5 12 2 12 -3 0 -7 -4 -10 -8z"/>
<path d="M1920 345 c0 -23 36 -54 57 -49 10 2 24 0 32 -5 12 -8 12 -14 1 -40
-16 -39 -10 -45 30 -36 66 14 44 65 -49 114 -69 36 -71 36 -71 16z m140 -89
c0 -14 -24 -29 -33 -19 -3 3 -3 11 0 19 7 18 33 18 33 0z"/>
<path d="M1095 340 c-4 -6 -3 -16 3 -22 6 -6 12 -6 17 2 4 6 3 16 -3 22 -6 6
-12 6 -17 -2z"/>
<path d="M1276 303 c-7 -7 13 -33 25 -33 5 0 9 6 9 14 0 15 -24 28 -34 19z"/>
<path d="M1332 288 c6 -18 28 -21 28 -4 0 9 -7 16 -16 16 -9 0 -14 -5 -12 -12z"/>
<path d="M1450 273 c0 -6 -11 -10 -25 -9 -13 2 -22 -1 -19 -5 7 -13 42 -11 49
2 4 6 4 13 1 16 -3 4 -6 1 -6 -4z"/>
<path d="M1518 259 c-40 -21 -63 -52 -54 -75 4 -11 30 -14 116 -14 113 0 146
-12 64 -24 -89 -12 -211 -7 -224 9 -11 13 -15 13 -33 0 -27 -19 -32 -19 -52 1
-11 12 -14 26 -9 51 l7 35 -39 -25 c-22 -13 -41 -32 -42 -42 -3 -15 1 -17 32
-11 28 5 36 4 36 -7 0 -8 7 -20 15 -27 12 -10 19 -10 37 2 19 13 25 12 57 -5
31 -16 49 -18 130 -12 106 6 146 20 146 50 0 18 -9 20 -115 26 -63 4 -117 7
-119 8 -2 0 2 8 10 17 17 21 63 44 89 44 11 0 20 5 20 10 0 16 -31 11 -72 -11z
m-208 -64 c0 -8 -9 -15 -20 -15 -25 0 -26 17 -2 23 9 3 18 5 20 6 1 0 2 -6 2
-14z"/>
<path d="M1897 263 c-13 -12 -7 -31 9 -29 9 0 19 -5 22 -13 3 -10 -1 -12 -16
-9 -13 4 -27 -1 -38 -13 -24 -27 -32 -24 -51 17 -16 32 -18 33 -25 15 -4 -12
-16 -21 -28 -21 -22 0 -26 -10 -9 -27 16 -16 -15 -70 -54 -93 -23 -14 -27 -20
-14 -20 32 0 53 18 72 62 29 66 35 72 52 48 18 -25 35 -25 57 -1 11 12 25 16
41 13 22 -4 25 -1 25 25 0 38 -25 65 -43 46z"/>
<path d="M1080 126 c0 -9 7 -16 16 -16 17 0 14 22 -4 28 -7 2 -12 -3 -12 -12z"/>
<path d="M1122 119 c2 -7 10 -15 17 -17 8 -3 12 1 9 9 -2 7 -10 15 -17 17 -8
3 -12 -1 -9 -9z"/>
<path d="M1825 120 c-3 -5 -15 -10 -26 -10 -22 0 -26 -15 -5 -23 8 -3 17 1 20
8 3 8 12 12 21 9 10 -4 15 0 15 10 0 18 -15 22 -25 6z"/>
<path d="M1352 88 c5 -15 28 -18 29 -3 0 6 -7 12 -17 13 -10 3 -15 -1 -12 -10z"/>
<path d="M1406 91 c-3 -5 1 -14 8 -20 16 -13 32 2 21 19 -8 12 -22 13 -29 1z"/>
</g>
</svg>
